<?xml version="1.0" encoding="utf-8"?>
<!-- Generator: Adobe Illustrator 27.2.0, SVG Export Plug-In . SVG Version: 6.00 Build 0)  -->
<svg version="1.1" id="Layer_1" xmlns="http://www.w3.org/2000/svg" xmlns:xlink="http://www.w3.org/1999/xlink" x="0px" y="0px"
	 viewBox="0 0 500 500" style="enable-background:new 0 0 500 500;" xml:space="preserve">
<style type="text/css">
	.st0{fill:#FFFFFF;}
	.st1{fill:none;stroke:#1E96FC;stroke-width:3.3649;stroke-miterlimit:6.6943;}
	.st2{fill:#FFC600;}
</style>
<rect x="-50" y="-50" class="st0" width="600" height="600"/>
<rect x="-50" y="-50" class="st0" width="600" height="600"/>
<rect x="-50" y="-50" class="st0" width="600" height="600"/>
<path class="st1" d="M67.5,155.9c5,0,9.4,0.8,13.1,2.3c3.7,1.5,6.6,3.6,8.5,6.2c2,2.6,2.9,5.6,2.9,9c0,1.9-0.3,3.7-0.8,5.3
	c-2.1,7.5-8.3,12.2-18.5,14.2c3.5,1,6.4,2.7,8.4,5.2c2.1,2.4,3.1,5.4,3.1,8.9c0,1.6-0.3,3.5-0.9,5.8c-1.6,5.8-4.9,10-9.8,12.8
	c-4.9,2.8-11.9,4.1-20.9,4.1H6.7c-1.5,0-2.8-0.3-3.6-0.8c-0.8-0.5-1.3-1.2-1.3-2.1c0-0.5,0.1-0.9,0.3-1.5c0.3-0.8,0.8-1.4,1.4-1.9
	c0.7-0.5,1.1-0.7,1.2-0.8c1.2-0.7,2.2-1.5,2.9-2.3c0.7-0.8,1.4-2,1.9-3.8l13.5-47.8c0.3-1,0.4-1.9,0.4-2.8c0-0.8-0.1-1.5-0.4-2.1
	c-0.3-0.6-0.6-1.2-1.1-1.9c-0.7-1-1-1.7-1-2.3c0-0.2,0.1-0.6,0.2-1.2c0.3-1,1-1.6,1.9-2c1-0.4,2.5-0.6,4.6-0.6H67.5z M62.5,176.2
	c0.5-1.6,0.8-3.1,0.8-4.5c0-3.8-2.2-5.8-6.5-5.8h-5l-5.9,20.7h4.9c3.1,0,5.6-0.8,7.4-2.3C60,182.8,61.4,180.1,62.5,176.2z
	 M54.5,208.7c0.5-1.8,0.8-3.4,0.8-4.9c0-4-2.3-6-6.9-6h-5.5l-6.3,21.8h5.6c3.2,0,5.7-0.8,7.7-2.4C51.7,215.7,53.3,212.9,54.5,208.7z
	 M161.4,155.9c2.7,0,4.8,0.6,6.4,1.8c1.5,1.2,2.3,2.8,2.3,4.9c0,1-0.1,2-0.4,3l-2.9,10.3c-0.5,2-1.3,3.4-2.3,4.2
	c-1,0.8-2.4,1.2-4.2,1.2c-1.8,0-3.2-0.4-4.2-1.2c-1-0.8-1.7-2.1-2.3-3.8l-1.8-6.3c-0.4-1.3-0.8-2.2-1.4-2.6c-0.5-0.5-1.5-0.7-3-0.7
	H136l-5.5,19.7h4.9c0.5,0,1.2-0.4,2.1-1.1l3.8-3.3c1.1-1,2.1-1.7,2.9-2.1c0.8-0.5,1.8-0.7,3-0.7c1.3,0,2.4,0.4,3.3,1.1
	c0.8,0.7,1.3,1.6,1.3,2.7c0,0.3-0.1,0.8-0.2,1.4l-4.5,15.4c-0.4,1.6-1.2,2.8-2.3,3.6c-1.1,0.8-2.2,1.2-3.5,1.2
	c-2.1,0-3.6-1.1-4.7-3.2l-1.9-3.9c-0.5-1.1-1.3-1.7-2.4-1.7h-4.3l-6.5,23.5h9.7c1.4,0,2.6-0.3,3.7-0.8c1.1-0.6,2.3-1.5,3.5-2.9
	l6.6-7.3c1.2-1.2,2.3-2.1,3.4-2.7c1.1-0.6,2.4-0.8,3.9-0.8c1.6,0,2.9,0.4,4,1.1c1,0.7,1.6,1.8,1.6,3.3c0,0.6-0.1,1.3-0.4,2.1
	l-3.2,11.2c-0.8,2.8-2,4.8-3.5,5.9c-1.5,1.1-3.8,1.6-6.7,1.6H91c-1.5,0-2.8-0.3-3.6-0.8c-0.8-0.5-1.3-1.2-1.3-2.1
	c0-0.5,0.1-0.9,0.3-1.5c0.3-0.8,0.8-1.4,1.4-1.9c0.7-0.5,1.1-0.7,1.2-0.8c1.2-0.7,2.2-1.5,2.9-2.3c0.7-0.8,1.4-2,1.9-3.8l13.6-47.8
	c0.3-1,0.4-1.8,0.4-2.6c0-0.9-0.1-1.6-0.4-2.2c-0.3-0.6-0.6-1.2-1.2-1.9c-0.7-1-1-1.7-1-2.3c0-0.2,0.1-0.6,0.2-1.2c0.3-1,1-1.6,2-2
	c1-0.4,2.5-0.6,4.5-0.6H161.4z M251.8,155.5c3.2,0,5.9,1.1,7.9,3.2c2.1,2.1,3.1,4.8,3.1,8c0,0.5-0.1,1.3-0.2,2.4
	c-0.6,3.6-2,6.2-4.2,7.9c-2.2,1.7-4.7,2.5-7.6,2.5c-1.9,0-3.6-0.3-4.9-0.9c-1.3-0.6-2.6-1.6-3.8-3L224,199.4l-5.1,17.2
	c-0.1,0.4-0.2,1-0.2,1.8c0,1,0.3,1.9,0.8,2.6c0.5,0.7,1.3,1.4,2.2,2.2c0.8,0.7,1.4,1.4,1.8,1.9c0.4,0.5,0.5,1.1,0.2,1.8
	c-0.3,1-1,1.7-2.2,2.2c-1.1,0.4-2.7,0.6-4.7,0.6h-27.9c-1.9,0-3.3-0.3-4.3-1.1c-0.9-0.7-1.2-1.7-0.9-2.9c0.1-0.7,0.4-1.2,0.8-1.6
	c0.4-0.4,1.1-0.9,1.9-1.5c1.1-0.7,2-1.4,2.8-2.3c0.7-0.8,1.4-2.1,1.9-3.7l5.1-17.3l-10.2-29c-0.7-2.1-1.6-3.8-2.6-4.9
	c-1-1.2-2.2-2.3-3.5-3.4c-0.8-0.6-1.4-1.1-1.8-1.5c-0.4-0.5-0.5-1-0.5-1.5c0-0.9,0.4-1.6,1.2-2.2c0.8-0.6,1.9-0.8,3.4-0.8h29.6
	c2.6,0,4.3,0.2,5.3,0.7c1,0.4,1.5,1.2,1.6,2.3c0,0.7-0.2,1.2-0.5,1.7c-0.3,0.5-0.7,1-1.3,1.7c-0.7,0.9-1.2,1.6-1.5,2.2
	c-0.3,0.5-0.5,1.2-0.5,2c0,0.2,0.1,0.7,0.2,1.5l5.1,19.5l14.1-20c3-4.3,5.9-7.4,8.6-9.2C245.4,156.4,248.4,155.5,251.8,155.5z
	 M304.7,154.3c9.3,0,16.6,2.2,21.8,6.6c5.2,4.4,7.9,10.7,7.9,19c0,3.9-0.6,8.1-1.8,12.6c-2.2,8.3-5.7,15.3-10.3,21
	c-4.6,5.8-10.2,10.1-16.6,13.1c-6.4,3-13.4,4.4-20.9,4.4c-9.2,0-16.5-2.2-21.7-6.6c-5.2-4.4-7.8-10.7-7.8-19c0-3.8,0.6-8.1,1.9-13
	c2.1-8.2,5.5-15.2,10.1-20.9c4.6-5.7,10.1-10.1,16.5-13C290.1,155.7,297.1,154.3,304.7,154.3z M302.7,165.1c-2.2,0-4.2,0.9-6,2.7
	c-1.8,1.8-3.5,4.7-5.3,8.7c-1.7,4-3.6,9.6-5.6,16.8c-2.9,10.3-4.4,17.5-4.4,21.4c0,2.3,0.4,4,1.2,5c0.8,1,2.1,1.5,3.9,1.5
	c2.2,0,4.2-0.9,6-2.7c1.8-1.8,3.5-4.7,5.2-8.7c1.7-4,3.6-9.5,5.7-16.5c2.9-10.2,4.3-17.3,4.3-21.5c0-2.4-0.4-4.1-1.2-5.1
	C305.6,165.6,304.4,165.1,302.7,165.1z M418.3,155.9c3,0,4.5,1,4.5,2.9c0,0.5,0,0.9-0.1,1.1c-0.2,0.7-0.6,1.3-1,1.7
	c-0.4,0.4-1.1,0.9-1.9,1.4c-1.1,0.7-2,1.4-2.8,2.2c-0.7,0.8-1.4,2.1-1.9,3.8l-13.7,49.2c-1.2,4.4-2.8,7.5-4.7,9.3
	c-1.9,1.8-4.5,2.7-7.8,2.7c-2.9,0-5.4-0.9-7.4-2.6c-2-1.7-3.8-4.4-5.5-8l-16.7-35.2l-9.3,32.3c-0.2,1-0.4,1.8-0.4,2.5
	c0,1,0.2,1.7,0.5,2.4c0.3,0.6,0.8,1.3,1.4,1.9c0.8,1,1.2,1.8,1.2,2.4c0,0.4,0,0.8-0.1,1c-0.3,1-1,1.7-2,2.2c-1,0.4-2.6,0.6-4.6,0.6
	H334c-3,0-4.5-1-4.5-2.9c0-0.5,0-0.9,0.1-1.1c0.2-0.7,0.6-1.3,1-1.7c0.4-0.4,1.1-0.9,1.9-1.4c1.1-0.7,2-1.4,2.8-2.2
	c0.7-0.8,1.4-2.1,1.9-3.8l14.1-49.7l-1.8-3.7c-0.7-1.5-1.1-2.8-1.1-3.9c0-2.3,1.5-3.4,4.4-3.4h16.4c2.4,0,4.1,0.5,5.4,1.6
	c1.2,1.1,2.5,3,3.9,5.7l16.2,32.5l7.7-26.7c0.2-1,0.3-1.9,0.3-2.5c0-1-0.2-1.7-0.5-2.4c-0.3-0.6-0.8-1.3-1.4-1.9
	c-0.8-1-1.2-1.8-1.2-2.4c0-0.4,0-0.8,0.1-1c0.3-1,0.9-1.7,2-2.1c1-0.4,2.6-0.6,4.6-0.6H418.3z M465.5,155.9c11.1,0,19.4,2.1,25,6.4
	c5.6,4.2,8.4,10.5,8.4,18.7c0,4.1-0.7,8.7-2.2,14.1c-2.4,8.6-5.7,15.4-9.9,20.4c-4.1,5-9.6,8.7-16.3,11c-6.7,2.3-15.4,3.4-26,3.3
	l-30.1-0.1c-1.5,0-2.7-0.3-3.6-0.8c-0.8-0.5-1.3-1.2-1.3-2.1c0-0.4,0.1-0.9,0.3-1.4c0.2-0.7,0.5-1.1,0.9-1.4c0.4-0.3,1-0.7,1.8-1.2
	c1.2-0.7,2.1-1.4,2.8-2.2c0.7-0.8,1.3-2.1,1.8-3.9l13.5-47.7c0.3-1,0.4-1.9,0.4-2.8c0-0.8-0.1-1.5-0.4-2.1c-0.3-0.6-0.6-1.2-1.1-1.9
	c-0.7-1-1-1.7-1-2.3c0-0.2,0.1-0.6,0.2-1.2c0.3-1,1-1.6,1.9-2c1-0.4,2.5-0.6,4.6-0.6H465.5z M468.4,192.6c1.9-6.9,2.9-12.4,2.9-16.4
	c0-3.9-0.8-6.6-2.4-8.1c-1.6-1.5-3.9-2.2-7-2.2h-2.4l-15,53.8h2.6c3.4,0,6.2-0.7,8.6-2.1c2.3-1.4,4.5-4.1,6.5-8
	C464.2,205.7,466.3,200,468.4,192.6z"/>
<g>
	<g transform="translate(53.050418, 236.961914)">
		<g>
			<path class="st2" d="M81.8-25.2c-0.3-5.9-3.9-10.3-9.9-9.7c-9.7,1-14.5,12.3-13.5,22.3c0.1,1.3,0.4,2.4,0.7,3.7
				c-1.8,0.3-3.8,0.7-6.1,0.9C36.5-6.4,24-12.2,15.5-26.1c-0.7-1.1-1.7-1.6-2.9-1.4c-1.1,0.1-2.9,1.2-2.7,3.2c0.1,0.6,0.2,1,0.4,1.4
				C20.2-7,34.9-0.1,53.7-2c2.6-0.3,4.8-0.6,7-1c2.1,5.6,5.3,11.2,8.6,16.9c5.1,8.7,10.3,17.7,11.3,27.6
				c1.8,17.9-9.8,32.9-28.7,34.8c-15.3,1.5-28-7.3-29.5-21.6c-1.4-13.6,7.7-26.6,20.3-27.9c8.9-0.9,15.5,6.2,15.5,14.6
				c0,1.9,1.6,3.2,3.5,3c1.4-0.1,2.3-1.4,2.5-2.4c0.2-1.2,0.1-2,0-2.6c-1.1-11-10.2-19.8-22.1-18.6c-15.4,1.6-27.5,17.1-25.8,34.1
				c1.8,17.5,16.7,29.4,35.7,27.5c21.6-2.2,36.8-19,34.6-41.5c-1.1-11-6.7-20.7-12.1-30c-3.1-5.3-6.1-10.5-8.1-15.7
				C76.7-9.1,82.2-16.7,81.8-25.2z M75.7-24.6c0.2,2.3,0.5,8.3-10.9,14c-0.2-0.8-0.3-1.8-0.4-2.7c-0.6-6.4,1.5-14.9,7.4-15.5
				C74.1-29.1,75.4-27.6,75.7-24.6z"/>
		</g>
	</g>
</g>
<g>
	<g transform="translate(104.970304, 231.745094)">
		<g>
			<path class="st2" d="M43.4,73.8c7-26.9,13.1-52.2,22-88.5c0.5-1.9-1.1-3.9-3.4-3.7c-1.1,0.1-2.2,0.9-2.5,2.1
				c-0.8,3.4-4.8,19.8-22,88.8c-0.4,1.6,0.6,3.3,2.2,3.7C41.4,76.5,43,75.3,43.4,73.8z M105.3,35.4c-0.4-0.1-0.9-0.2-1.3-0.2
				c-1.1,0.1-2.1,0.9-2.5,2.1c-4.2,12.8-9.6,27.7-18.1,28.5c-3,0.3-4.9-2.3-5.1-4.8c-0.3-3.3,0.1-14.5-0.2-17.8
				c-0.8-6.1-3.1-10.8-9.9-11.3L89.8,7.9c0.5-0.6,0.9-1.4,0.8-2.2c-0.1-1.1-1.3-2.9-3.5-2.7c-0.7,0.1-1.1,0.1-1.9,0.9
				C68,23.3,56,36.2,54.3,38.2c-1.9,2.4-0.9,5.4,2.3,5.1c2.7-0.3,4.4-4.8,8.6-5.2c4.9-0.5,6.4,2.1,6.9,5.8c0.4,2.6,0.3,5.6,0.1,8.5
				c-0.1,3.3-0.2,6.5,0.1,9.7c0.5,5.4,5.1,10.5,11.7,9.8c11.9-1.2,18-16.7,23.3-32.7c0.1-0.4,0.2-0.9,0.2-1.3
				C107.3,36.8,106.5,35.7,105.3,35.4z"/>
		</g>
	</g>
</g>
<g>
	<g transform="translate(142.123123, 228.012043)">
		<g>
			<path class="st2" d="M80.9-3.5c2.7-0.3,4.7-2.6,4.4-5.4c-0.3-2.7-2.6-4.6-5.4-4.4c-2.7,0.3-4.8,2.6-4.5,5.4S78.2-3.2,80.9-3.5z
				 M94.5,36.5c-0.4-0.1-0.7-0.2-1.2-0.2c-1.1,0.1-2.2,0.9-2.7,2.1C86.5,50.7,81.4,66.1,72.6,67c-3,0.3-4.5-1.4-4.9-5.6
				C67,55.3,69,48.4,78.9,8c0.6-2.5-1.4-3.8-3.2-3.6c-1.1,0.1-2.2,0.9-2.5,2.3C68.5,23.6,61,50.8,61.7,62c0.4,6.6,4.6,11.7,11.5,11
				c12-1.2,18-16.5,23.3-32.7c0.1-0.4,0.2-0.9,0.2-1.3C96.5,37.9,95.7,36.8,94.5,36.5z"/>
		</g>
	</g>
</g>
<g>
	<g transform="translate(159.429758, 226.273102)">
		<g>
			<path class="st2" d="M134.2,32.5c-0.4-0.1-0.9-0.2-1.3-0.2c-1.1,0.1-2.1,0.9-2.5,2.1c-6.8,19.8-11.2,27.9-17.9,28.5
				c-3,0.3-4.5-1.4-4.9-5.6c-1.1-11,8.2-30.9,6.9-43.6C113.7,6.2,110,0.7,99.7,1.7c-4.7,0.5-8.9,3.6-12.6,8.3l0.9-3
				c0.5-1.9-1.1-3.9-3.3-3.7c-1.3,0.1-2.4,1-2.7,2.3c-4,15.9-10.4,42.7-15.8,64c-0.4,1.8,0.6,3.3,2.2,3.7c1.6,0.3,3.3-0.6,3.7-2.4
				l7.2-29.3c3.4-12.6,12.3-33,21-33.9c5.6-0.6,7.8,2.5,8.2,6.7c1.2,12.4-8.2,30.2-6.9,43.6c0.7,7,4.6,11.7,11.5,11
				c9.7-1,15.6-10.1,23.2-32.7c0.1-0.4,0.2-0.9,0.2-1.3C136.3,33.9,135.4,33,134.2,32.5z"/>
		</g>
	</g>
</g>
<g>
	<g transform="translate(196.958793, 222.50225)">
		<g>
			<path class="st2" d="M142.1,31.7c-1.6-0.4-3.3,0.5-3.8,2c-5.5,17.2-13.4,28.1-27.2,29.5c-6.9,0.7-12-4.3-12.8-12.3
				C96.5,33.7,109.2,7.1,120.4,6c4.3-0.4,6.4,1.8,6.9,6.8c0.6,5.7-2.6,8.5-2.4,10.5c0.2,1.9,1.4,2.7,3.3,2.6
				c3.3-0.3,5.8-7.2,5.1-13.7c-0.8-7.9-5.4-13-13.5-12.2c-14.6,1.5-29.9,29-27.6,51.3c1.2,11.7,8.8,18.9,19.3,17.9
				c16.6-1.7,25.8-13.3,32.6-33.6c0.1-0.4,0.2-0.7,0.2-1.2C144.1,33.2,143.3,32.2,142.1,31.7z"/>
		</g>
	</g>
</g>
<g>
	<g transform="translate(226.775101, 219.506359)">
		<g>
			<path class="st2" d="M169.9,28.9c-0.4-0.1-0.9-0.2-1.3-0.2c-1.1,0.1-2.1,0.9-2.5,2.1l-0.1,0.4c-3.7,11.1-9,27.2-17.8,28.1
				c-3,0.3-4.5-1.3-4.9-5.6c-0.6-6.3,2.8-19.2,6.5-34.2L155-0.2c0.5-1.8-0.8-4-3.1-3.7c-1.3,0.1-2.4,1-2.7,2.1
				c-0.5,1.9-1.2,4.2-1.8,6.7c-3.1-4.9-7.8-6.9-13.8-6.3c-17.2,1.7-28.2,36.6-26.4,55.4c0.9,8.6,5.3,15.1,13.3,14.3
				c6.2-0.6,11.8-5.2,16.7-13.8c0.7,7,4.6,11.7,11.5,11c12.9-1.3,18.8-19.7,23.1-32.2l0.1-0.4c0.1-0.4,0.2-0.9,0.2-1.3
				C171.9,30.3,171.1,29.4,169.9,28.9z M119.8,62.3c-4.3,0.4-6-3.6-6.6-9.9c-1.1-14.2,7.9-46.2,21.1-47.8c5.1-0.5,9.3,3,10.2,9.5
				l-2.5,9.5C137.6,38.8,131.4,61.1,119.8,62.3z"/>
		</g>
	</g>
</g>
<g>
	<g transform="translate(264.680372, 215.697703)">
		<g>
			<path class="st2" d="M184.6,27.4c-0.4-0.1-0.9-0.2-1.3-0.2c-1.1,0.1-2.1,0.9-2.5,2.1c-6.3,19.3-10.9,27.8-17.9,28.5
				c-3.1,0.3-4.5-2-4.9-5.6c-0.1-2.4-0.1-4.9,0.5-8c0.5-3.7,5.3-24.8,6.7-29.7c0.4-1.8-0.5-3.6-2.1-4c-1.6-0.4-3.5-0.8-5.6-1.2
				c-4.3-1-9.3-2.1-13.5-3.7c1.2-5.7,1.6-7.1,1.4-9.4c-0.6-5.7-4.1-9.1-9.2-8.6c-4.6,0.5-8.4,4.3-7.8,10.2c0.5,5.3,3.9,8.7,8.5,11.3
				l-1.3,4.5l-8.9,26c-0.1,0.4-0.2,0.9-0.2,1.3c0.1,1.1,0.9,2.1,2,2.5c0.4,0.1,0.9,0.2,1.5,0.1c1-0.1,1.9-0.8,2.4-2
				c8.9-26.2,9.7-28.3,10.1-30.1c3.3,1.3,4.9,1.7,16.2,4.2c-1,3.3-5.4,22.9-6,27.6c-0.6,3.7-0.8,6.6-0.5,9.4c0.7,7,4.6,11.7,11.4,11
				l0.1,0c9.7-1,16-10.4,23.2-32.7c0.1-0.4,0.2-0.9,0.2-1.3C186.6,28.8,185.8,27.9,184.6,27.4z M139.2-3.1c0.1,1.4-0.5,4.1-1,6.2
				c-2.3-1.5-3.9-3.9-4.1-6.2c-0.2-1.6,0.6-2.8,2.4-3C137.7-6.3,139-5.5,139.2-3.1z"/>
		</g>
	</g>
</g>
<g>
	<g transform="translate(299.293624, 212.219823)">
		<g>
			<path class="st2" d="M195.3,26.4c-1.6-0.4-3.3,0.5-3.8,2c-6.2,19.3-14.5,28.5-26.2,29.4c-8.6,0.6-13.7-4-14.2-12.2
				c-0.2-3,0-5.8,0.6-9.6C167.1,30.5,187.5,19.2,186,4c-0.7-6.9-6.1-10.1-13.2-9.4C155.9-3.6,144,27.6,145,46
				c0.9,11.8,8.8,18.9,20.7,17.7c14.4-1.4,24.4-12,31.6-33.5c0.1-0.4,0.2-0.7,0.2-1.2C197.4,27.9,196.5,26.8,195.3,26.4z
				 M153.3,28.9c3.5-11.5,10.3-27.2,20.1-28.2c3.1-0.3,6.2,0.1,6.6,4C181.1,15.2,164.8,23.9,153.3,28.9z"/>
		</g>
	</g>
</g>
</svg>
